<svg xmlns="http://www.w3.org/2000/svg" width="40" height="40" fill="none" viewBox="0 0 40 40"><rect width="40" height="40" fill="#fff" fill-opacity=".04" rx="20"/><rect width="39" height="39" x=".5" y=".5" stroke="#fff" stroke-opacity=".1" rx="19.5"/><path fill="#fff" fill-opacity=".5" fill-rule="evenodd" d="M24.26 22.82c.2-.4.7-.57 1.11-.37a8.43 8.43 0 0 1 3.35 3.12c.13.2.31.47.37.84.06.4-.05.77-.2 1.06-.17.29-.43.57-.8.73-.35.15-.73.13-1 .13a.83.83 0 0 1 0-1.66h.33v-.01a6.77 6.77 0 0 0-2.8-2.72.83.83 0 0 1-.36-1.12ZM22.59 12.52c.2-.41.7-.58 1.11-.38a4.58 4.58 0 0 1 0 8.22.83.83 0 0 1-.74-1.5 2.92 2.92 0 0 0 0-5.22.83.83 0 0 1-.37-1.12Z" clip-rule="evenodd"/><path fill="#fff" fill-opacity=".5" fill-rule="evenodd" d="M13.33 16.25a4.58 4.58 0 1 1 9.17 0 4.58 4.58 0 0 1-9.17 0ZM17.92 21.67a7.93 7.93 0 0 1 6.85 4.27c.12.24.2.5.18.83-.01.25-.1.5-.2.68-.1.19-.25.4-.46.55-.27.2-.57.28-.83.3-.23.03-.5.03-.78.03h-9.53c-.28 0-.55 0-.78-.02-.26-.03-.56-.1-.83-.31-.2-.16-.36-.36-.46-.55-.1-.19-.18-.43-.2-.68-.02-.32.06-.6.18-.83a7.92 7.92 0 0 1 6.86-4.27Z" clip-rule="evenodd"/></svg>